<?xml version="1.0" encoding="UTF-8"?>
<svg width="209px" height="56px" viewBox="0 0 209 56" version="1.1" xmlns="http://www.w3.org/2000/svg" xmlns:xlink="http://www.w3.org/1999/xlink">
    <!-- Generator: Sketch 53 (72520) - https://sketchapp.com -->
    <title>Group 3</title>
    <desc>Created with Sketch.</desc>
    <defs>
        <polygon id="path-1" points="0 -9.14560474e-05 208.063226 -9.14560474e-05 208.063226 54.5089003 0 54.5089003"></polygon>
    </defs>
    <g id="Case-Studies" stroke="none" stroke-width="1" fill="none" fill-rule="evenodd" opacity="0.5">
        <g id="Case-Study---Blue-Apron" transform="translate(-180.000000, -11338.000000)">
            <g id="Blue-Apron---Press" transform="translate(0.000000, 11152.607750)">
                <g id="Group-3" transform="translate(180.000000, 186.000000)">
                    <mask id="mask-2" fill="white">
                        <use xlink:href="#path-1"></use>
                    </mask>
                    <g id="Clip-2"></g>
                    <path d="M207.075296,36.8375215 C205.817392,34.3223065 203.499704,32.5977903 198.639005,30.5657473 C194.673683,28.9068763 192.685403,27.7583817 191.465941,26.4295108 C190.482446,25.3531667 190.191478,24.479672 190.290242,22.8651559 C190.378952,21.3760161 190.740887,20.4871452 191.674704,19.492414 C192.871694,18.2132204 194.519919,17.7625753 196.496962,18.1801022 C199.731909,18.8613925 201.808306,21.1021989 203.598468,25.8416613 C204.235995,27.5336505 204.306962,27.583328 205.455457,27.1604785 L206.179919,26.8913925 L206.158038,24.9409624 C206.14207,23.8699409 206.086478,21.6232204 206.031478,19.9483817 L205.938629,16.8944032 L205.400457,16.6690806 C202.439919,15.4111774 196.78793,14.6317151 193.108253,14.9670376 C188.928253,15.3514462 185.858306,16.6749946 183.496263,19.1245645 C181.145457,21.5575753 180.090995,24.4134355 180.277876,27.797414 C180.43164,30.6035968 181.261371,32.6137581 182.985887,34.382629 C184.589758,36.0190269 185.935188,36.7937581 189.78578,38.2988656 C196.007876,40.7318763 197.655511,42.1713387 197.639543,45.1644032 C197.628306,47.6961774 196.288199,49.5472527 193.843952,50.4095108 C192.970457,50.7170376 190.757446,50.7170376 189.582339,50.4035968 C186.489328,49.5910161 184.122554,46.9108011 182.101156,41.9460161 L181.584866,40.6709624 L180.981048,40.6987581 C180.646317,40.7153172 180.184435,40.8194032 179.959113,40.9240806 L179.541586,41.1275215 L179.580618,43.2967688 C179.6025,44.4890269 179.662231,47.0036505 179.711909,48.8878441 L179.810672,52.309672 L180.497876,52.6065538 C181.914866,53.2156935 186.160511,54.1447796 188.829489,54.4298333 C189.158898,54.4629516 190.976855,54.4795108 192.871694,54.457629 C196.162231,54.4191882 196.398199,54.3967151 198.051156,53.9632204 C202.934328,52.6887581 206.092392,49.9701022 207.492823,45.8397796 C207.921586,44.5712312 207.981317,44.1868226 208.048145,42.2967151 C208.129758,39.7820914 207.899704,38.4745108 207.075296,36.8375215 L207.075296,36.8375215 Z M158.159597,30.0051022 L155.353414,30.0488656 L155.353414,29.4450484 C155.353414,29.1103172 155.452177,28.2309086 155.5675,27.4892957 C156.500726,21.4588118 158.75336,17.839457 161.565457,17.833543 C164.157554,17.8282204 165.756102,21.3984892 166.084919,27.9233817 L166.178952,29.7797796 L163.575027,29.8678978 C162.141478,29.9175753 159.703145,29.9773065 158.159597,30.0051022 L158.159597,30.0051022 Z M177.372339,30.0382204 C176.685726,23.3039731 173.955833,18.6685968 169.32578,16.3509086 C165.212016,14.2857473 158.857446,14.4341882 154.210833,16.7021989 C149.806102,18.8501559 146.774005,22.4310699 145.082608,27.4892957 C144.198468,30.1204247 143.923468,32.240586 144.010995,35.6511774 C144.066586,37.810371 144.165349,38.9245645 144.390672,39.9246183 C146.125833,47.6742957 151.443091,52.9412849 158.874005,54.2873065 C160.505081,54.5782742 164.22379,54.5835968 165.876747,54.2979516 C168.238199,53.8863387 170.957446,52.8318763 172.67664,51.6727366 C174.774328,50.2551559 176.922285,48.1302634 176.922285,47.4708548 C176.922285,47.0645645 176.202554,46.1366613 175.889704,46.1366613 C175.751909,46.1366613 175.169973,46.4435968 174.59336,46.8120376 C172.544167,48.1409086 170.583683,48.6849946 167.859113,48.6849946 C164.097231,48.6849946 161.71922,47.7452634 159.318737,45.3288118 C158.258952,44.2577903 157.824866,43.6811774 157.275457,42.6208011 C156.067231,40.2871452 155.413737,37.6010161 155.320296,34.5695108 L155.276532,33.2566075 L177.443898,33.1797258 L177.492984,32.4327903 C177.520188,32.020586 177.46578,30.9442419 177.372339,30.0382204 L177.372339,30.0382204 Z M119.35621,51.4202097 C118.751801,51.3764462 118.614597,51.3048871 118.493952,50.9861237 C118.301747,50.4804785 118.070511,32.9218763 118.169274,25.9078978 L118.240833,20.4374677 L119.234973,20.1411774 C119.894382,19.9483817 120.673844,19.8496183 121.580457,19.8496183 C122.849005,19.8496183 123.013414,19.8880591 124.079113,20.4149946 C126.655833,21.6900484 128.418199,24.8481129 129.242608,29.6591344 C129.54422,31.4386505 129.582661,36.2940269 129.308253,38.4254247 C128.638199,43.6533817 126.924919,47.8777366 124.650403,49.9263387 C123.744382,50.7389194 122.898683,51.1730054 121.811102,51.3817688 C121.019812,51.5302097 120.783844,51.5355323 119.35621,51.4202097 L119.35621,51.4202097 Z M140.699758,28.390586 C139.205296,21.5469301 134.937769,16.8234355 129.165726,15.6317688 C128.281586,15.4502097 127.484973,15.4111774 125.76578,15.4720914 C123.183737,15.5596183 121.404812,15.9499409 119.470941,16.8399946 C118.834005,17.1362849 118.273952,17.3781667 118.230188,17.3781667 C118.191747,17.3781667 118.19707,13.4672527 118.246747,8.68875806 C118.317715,1.95569355 118.295833,-5.91397849e-05 118.158038,-5.91397849e-05 C117.669543,-0.0112956989 102.373038,2.91139247 102.203306,3.0426828 C102.076747,3.14144624 102.02707,3.46553226 102.054866,3.95402688 C102.103952,4.80563978 102.005188,4.73999462 103.866909,5.15752151 C104.427554,5.28348925 105.086371,5.53069355 105.328253,5.70160753 C105.94922,6.14633871 106.470833,7.10203763 106.827446,8.48058602 C107.107769,9.56225269 107.14621,10.3423065 107.278091,17.6797796 C107.409973,25.1716075 107.388091,32.8721989 107.179328,46.9817688 L107.096532,52.8425215 L108.190027,53.0897258 C109.777339,53.4522527 114.319274,54.2104247 115.807823,54.3582742 C117.982984,54.5782742 123.068414,54.5504785 124.683522,54.3032742 C131.708737,53.2434892 137.003522,49.1734892 139.474382,42.9289194 C140.128468,41.2700484 140.754167,38.7217151 140.974167,36.8262849 C141.232016,34.6073602 141.089489,30.1701022 140.699758,28.390586 L140.699758,28.390586 Z M100.593522,14.8292419 C98.8530376,14.8292419 97.9133065,15.0273602 96.5016398,15.6696183 C93.9367473,16.8453172 92.0093817,18.7732742 90.2848656,21.8763387 L89.7461022,22.8485968 L89.8176613,21.1240806 C89.8561022,20.1737043 89.9217473,18.4048333 89.9607796,17.1912849 L90.0317473,14.9835968 L89.6638978,14.9835968 C89.1860484,14.9835968 74.3508333,17.949457 73.9001882,18.1304247 C73.6092204,18.2510699 73.565457,18.3829516 73.565457,19.0973602 C73.565457,19.8277366 73.5985753,19.9265 73.9001882,19.9868226 C74.0876613,20.0252634 74.7683602,20.1630591 75.4165323,20.2837043 C76.7294355,20.5362312 77.1191667,20.7390806 77.6573387,21.4588118 C78.6568011,22.7770376 78.8602419,25.1112849 78.8495968,34.9811237 C78.8436828,43.0495645 78.6733602,47.0704785 78.2942742,48.3224677 C77.8217473,49.8654247 76.9872849,50.6508011 75.5371774,50.9258011 C75.0705645,51.0139194 74.4495968,51.1345645 74.164543,51.1948871 L73.6370161,51.3048871 L73.5932527,52.3427903 C73.5601344,53.0678441 73.6092204,53.4138118 73.7411022,53.5019301 C73.8511022,53.5675753 78.9264785,53.6113387 85.0226075,53.589457 L96.1059946,53.5510161 L96.1509409,52.3924677 C96.1775538,51.7555323 96.1397043,51.233328 96.0787903,51.233328 C95.2165323,51.233328 92.5747581,50.8708011 92.1578226,50.6951559 C90.9105645,50.173543 90.3067473,49.0528441 90.0423925,46.7735968 C89.735457,44.0987043 89.5538978,37.4525753 89.6420161,31.9987043 C89.7242204,26.5004785 89.7242204,26.4738656 90.0701882,26.1060161 C90.8721237,25.2437581 92.9100806,24.5731129 94.7274462,24.5731129 C96.1947043,24.5677903 97.6992204,24.9468763 99.3030914,25.7151022 C100.077231,26.083543 100.785726,26.3579516 100.884489,26.3201022 C101.082608,26.242629 104.718522,16.6312312 104.718522,16.180586 C104.718522,15.5052097 102.658683,14.8292419 100.593522,14.8292419 L100.593522,14.8292419 Z M56.9069624,51.453328 C52.8091667,52.6668763 49.8823387,48.7671989 48.7450806,40.594672 C48.3772312,37.9582204 48.3825538,30.7632742 48.7504032,27.742414 C49.5529301,21.1737581 51.5790591,17.833543 54.7761559,17.8282204 C56.2150269,17.8282204 57.0116398,18.1801022 58.1429839,19.3114462 C60.8231989,22.0141344 62.0923387,27.1711237 62.0751882,35.277414 C62.058629,41.7478978 61.416371,45.8178978 59.9721774,48.5749946 C59.274328,49.9097796 57.9667473,51.1345645 56.9069624,51.453328 L56.9069624,51.453328 Z M73.5766935,31.537414 C72.7966398,24.8918763 69.9792204,20.0252634 65.3266935,17.2841344 C60.1525538,14.2419839 52.2987903,14.0663387 46.7189516,16.8671989 C42.6868011,18.8939194 39.3974462,22.7882742 37.9307796,27.2645645 C36.425672,31.8833817 36.425672,37.9469839 37.9361022,42.6598333 C38.9030376,45.6806935 40.2153495,47.8889731 42.2367473,49.8932204 C44.6644355,52.2937043 47.8390591,53.8313387 51.4696505,54.3582742 C52.7713172,54.5504785 56.8738441,54.5563925 58.2198656,54.3701022 C58.8568011,54.2760699 59.9550269,54.0401022 60.6641129,53.8313387 C67.2487366,51.9258548 71.7421774,46.8670376 73.2851344,39.622414 C73.6642204,37.8541344 73.8185753,33.5641344 73.5766935,31.537414 L73.5766935,31.537414 Z M41.0391667,16.027414 C40.4572312,16.2024677 39.9628226,16.3290269 39.9462634,16.3012312 C39.9243817,16.2740269 39.7262634,15.7139731 39.4962097,15.0545645 C39.2708871,14.3957473 38.7605108,13.1656398 38.3589516,12.3193495 C36.5741129,8.55746774 34.4433065,6.39295161 31.4768548,5.32784409 L30.1970699,4.87187634 L24.6994355,4.82219892 L19.1958871,4.77843548 L19.124328,5.12440323 C18.9268011,6.04166129 18.5311559,25.7647796 18.7020699,26.0232204 C18.8008333,26.1657473 19.5471774,26.1716613 22.0411022,26.0563387 C23.8093817,25.973543 25.5557796,25.8363387 25.929543,25.7541344 C27.4399731,25.4022527 28.6269086,24.3365538 29.4672849,22.5629516 C30.005457,21.4256935 30.5708333,19.6296183 30.5708333,19.0642419 C30.5708333,18.7513925 30.6364785,18.7295108 31.548414,18.7295108 L32.520672,18.7295108 L32.520672,36.1177903 L31.603414,36.0740269 L30.6914785,36.0302634 L30.3455108,34.6463925 C29.5548118,31.5214462 27.9781452,29.505371 25.929543,29.0162849 C25.1879301,28.8412312 18.8552419,28.5881129 18.7127151,28.7306398 C18.5589516,28.8849946 18.8008333,39.0126828 19.0421237,42.4623065 C19.3827688,47.3117688 20.261586,49.5856935 22.1617473,50.5467151 C22.6999194,50.8158011 26.0229839,51.5302097 26.7368011,51.5302097 C26.7864785,51.5302097 26.8308333,51.9033817 26.8308333,52.3534355 L26.8308333,53.1778441 L0.0168548387,53.1778441 L0.0168548387,51.557414 L0.768521505,51.392414 C1.1813172,51.3048871 1.98266129,51.1564462 2.54862903,51.0630054 C4.60255376,50.7229516 5.84922043,49.6022527 6.51395161,47.487414 C7.32653226,44.9171989 7.49153226,42.2641882 7.60685484,29.5106935 C7.71685484,17.4438118 7.4808871,10.9958011 6.81615591,8.13994086 C6.39330645,6.29951075 5.71733871,5.1303172 4.6191129,4.3337043 C3.89405914,3.8115 3.23465054,3.61397312 1.43916667,3.38865054 L0.0878225806,3.22424194 L0.0440591398,2.28451075 L-0.000295698925,1.35128495 L41.775457,1.35128495 L41.8635753,3.63585484 C41.9073387,4.89375806 41.9842204,8.12338172 42.0226613,10.8148333 L42.099543,15.703328 L41.0391667,16.027414 Z" id="Fill-1" fill="#1D1D1E" mask="url(#mask-2)"></path>
                </g>
            </g>
        </g>
    </g>
</svg>