<?xml version="1.0" encoding="UTF-8"?>
<svg width="173px" height="60px" viewBox="0 0 173 60" version="1.1" xmlns="http://www.w3.org/2000/svg" xmlns:xlink="http://www.w3.org/1999/xlink">
    <!-- Generator: Sketch 53 (72520) - https://sketchapp.com -->
    <title>Group 9</title>
    <desc>Created with Sketch.</desc>
    <defs>
        <polygon id="path-1" points="0.0751405881 0.324406003 14.7390897 0.324406003 14.7390897 14.981733 0.0751405881 14.981733"></polygon>
        <polygon id="path-3" points="0 0.587711599 108.843729 0.587711599 108.843729 58.910629 0 58.910629"></polygon>
    </defs>
    <g id="Case-Studies" stroke="none" stroke-width="1" fill="none" fill-rule="evenodd" opacity="0.5">
        <g id="Case-Study---Blue-Apron" transform="translate(-1083.000000, -11336.000000)">
            <g id="Blue-Apron---Press" transform="translate(0.000000, 11152.607750)">
                <g id="Group-9" transform="translate(1083.000000, 183.000000)">
                    <g id="Group-3" transform="translate(157.931034, 44.137931)">
                        <mask id="mask-2" fill="white">
                            <use xlink:href="#path-1"></use>
                        </mask>
                        <g id="Clip-2"></g>
                        <path d="M14.7390897,7.65272276 C14.7220966,11.7304607 11.416331,15.0052745 7.34223448,14.9816055 C3.33368276,14.9591503 0.0528,11.6297159 0.0752551724,7.60781241 C0.0977103448,3.56891586 3.40772414,0.311095172 7.47453793,0.324446897 C11.4533517,0.336584828 14.7554759,3.66905379 14.7390897,7.65272276" id="Fill-1" fill="#1D1D1E" mask="url(#mask-2)"></path>
                    </g>
                    <path d="M142.505475,35.0536907 L160,33.2613746 C158.290813,22.5062804 151.906303,16.381386 140.846469,14.8872903 C124.256416,12.6470449 114.001297,20.2654362 111.286671,24.1488875 C108.572045,28.0329377 107.214732,31.4690586 106.91304,37.7424643 C106.611347,44.0164689 110.532742,49.6928351 111.890055,51.186332 C113.247368,52.6810266 119.430549,60 135.115525,60 C150.800501,60 155.928061,54.0248146 158.491539,48.4975585 C159.497583,46.2076097 160,44.2655846 160,42.6720821 L142.807167,42.6720821 C142.304145,47.1531717 139.740667,49.394016 135.115525,49.394016 C128.178416,49.394016 127.273339,42.9709012 127.575032,37.7424643 C127.876724,32.5146262 127.424488,25.6429833 134.813833,25.3441642 C139.740667,25.1447518 142.304145,28.3814602 142.505475,35.0536907" id="Fill-4" fill="#1D1D1E"></path>
                    <g id="Group-8">
                        <mask id="mask-4" fill="white">
                            <use xlink:href="#path-3"></use>
                        </mask>
                        <g id="Clip-7"></g>
                        <path d="M7.60513088,14.2876823 L-0.00018060583,14.2876823 L-0.00018060583,0.58759178 L40.7739935,0.58759178 L40.7739935,14.209201 L33.166274,14.209201 L33.166274,46.1493194 L40.7691774,46.1493194 L40.7691774,58.904039 L0.00764564679,58.904039 L0.00764564679,46.178675 L7.60513088,46.178675 L7.60513088,14.2876823 Z M108.843729,46.5998384 L108.843729,58.9076336 L77.685611,58.9076336 L77.685611,46.1768777 L83.5685449,46.1768777 L83.5685449,45.7982501 C83.5685449,41.4715904 83.5697489,37.1443316 83.5655348,32.818271 C83.5649327,31.5511863 83.2819836,30.3631822 82.5035725,29.3315416 C81.6053595,28.1423393 80.3603833,27.5180829 78.9275771,27.252085 C76.3358834,26.769814 73.9109491,27.1520362 71.7876266,28.794753 C69.8515321,30.2936872 68.8485677,32.3216217 68.8064264,34.7347739 C68.7402042,38.504875 68.7895698,42.2779714 68.7907739,46.0492706 C70.8069369,46.1583058 72.8032334,46.1583058 74.8230086,46.1583058 L74.8230086,58.910629 L42.9605281,58.910629 L42.9605281,46.1810714 L48.6905491,46.1810714 L48.6905491,27.0543838 L42.958722,27.0543838 L42.958722,14.3074525 L68.0960434,14.3074525 L68.0960434,23.0967663 C68.4711015,22.6977694 68.7697032,22.4054114 69.0388059,22.0884904 C70.9905529,19.7873689 73.2704005,17.903217 76.0294555,16.6271459 C77.9498975,15.7392881 79.9702747,15.1989049 82.0677104,14.9460871 C85.616013,14.5189328 89.1450509,14.5980132 92.6343555,15.4235653 C95.1857139,16.0280515 97.5287735,17.0632867 99.4985811,18.8354079 C101.545447,20.6776231 102.774771,22.9853347 103.276253,25.6578948 C103.504418,26.8728582 103.62422,28.1051954 103.634455,29.3417262 C103.67178,34.7779087 103.650107,40.2146904 103.650709,45.6520711 L103.650709,46.1457248 L108.843729,46.1457248 L108.843729,46.5998384 Z" id="Fill-6" fill="#1D1D1E" mask="url(#mask-4)"></path>
                    </g>
                </g>
            </g>
        </g>
    </g>
</svg>