<?xml version="1.0" encoding="utf-8"?>
<!-- Generator: Adobe Illustrator 23.0.1, SVG Export Plug-In . SVG Version: 6.00 Build 0)  -->
<svg version="1.1" id="Layer_1" xmlns="http://www.w3.org/2000/svg" xmlns:xlink="http://www.w3.org/1999/xlink" x="0px" y="0px"
	 viewBox="0 0 639 464.6" style="enable-background:new 0 0 639 464.6;" xml:space="preserve">
<style type="text/css">
	.st0{fill:#FFFFFF;}
</style>
<g id="About">
	<g id="MOD-5-SLIDER">
		<g>
			<path id="CHANGEISGOOD." class="st0" d="M97.2,159.7v-28.1H69.9v28.7c0,9.3-5.2,16-15.9,16s-16-6.7-16-15.7V47.5
				c0-9,5.2-15.7,16-15.7s15.9,6.7,15.9,15.9v28.4h27.3V48.4C97.2,22.6,81.8,4,53.4,4C25.3,4,6.7,23.7,6.7,50.1V158
				c0,26.4,18.6,46.1,46.7,46.1C81.8,204.1,97.2,185.5,97.2,159.7z M203.7,200.6V7.5H173v83.8h-32.5V7.5h-30.7v193.1h30.7v-81.2H173
				v81.2H203.7z M309.1,200.6L276.9,7.5H243l-32.2,193.1h28.1l5.8-37.7h28.1l4.9,37.7H309.1z M269.3,137.1h-20.9l11.3-78.9
				L269.3,137.1z M410.7,200.6V7.5h-27.6v118.3l-9.9-29.9L343.1,7.5h-27.3v193.1h27.8V83.5l10.7,29.6l32.5,87.6H410.7z M517.5,200.6
				V104h-45v23.2h15.1v34.5c0,8.4-5.2,15.4-15.7,15.4c-10.2,0-15.7-7-15.7-15.4V46.9c0-8.1,5.2-15.1,15.4-15.1
				c10.4,0,15.4,6.7,15.4,14.8v27.6h29V48.4c0-24.6-16-44.4-44.4-44.4c-28.4,0-46.4,20.3-46.4,44.4v111.4c0,26.1,16,44.4,41.5,44.4
				c13,0,24.4-5.5,29.6-16.5l4.6,13H517.5z M608.4,200.6v-28.1H562v-58.9h32.2V88.1H562V34.7h46.4V7.5h-77.1v193.1H608.4z
				 M39.5,460.6V267.5H8.7v193.1H39.5z M141.9,416.5c0-24.4-13.9-43.8-32.8-63.2l-3.7-4C90,332.8,82.8,323.6,82.8,306
				c0-9.9,6.1-15.7,15.1-15.7c9.9,0,14.8,7.2,14.8,18v17.4h27.8v-17.4c0-26.4-16.8-44.4-42.6-44.4c-29.9,0-44.9,21.2-44.9,47.3
				c0,24.6,18.6,47.3,34.5,63.2c16.2,17.1,24.6,29.6,24.6,46.4c0,10.7-5.2,17.4-16.2,17.4c-10.7,0-16.2-7-16.2-19.1v-16.5H51.5v17.1
				c0,27.3,17.4,44.4,45.2,44.4C121.9,464.1,141.9,447.3,141.9,416.5z M277.6,460.6V364h-45v23.2h15.1v34.5
				c0,8.4-5.2,15.4-15.7,15.4c-10.1,0-15.7-7-15.7-15.4V306.9c0-8.1,5.2-15.1,15.4-15.1c10.4,0,15.4,6.7,15.4,14.8v27.5h29v-25.8
				c0-24.6-15.9-44.4-44.4-44.4c-28.4,0-46.4,20.3-46.4,44.4v111.4c0,26.1,16,44.4,41.5,44.4c13,0,24.4-5.5,29.6-16.5l4.6,13H277.6z
				 M381.8,418.3V309.8c0-26.7-18.3-45.8-46.1-45.8c-27.8,0-46.1,19.1-46.1,45.8v108.5c0,27,18.3,45.8,46.1,45.8
				C363.5,464.1,381.8,445.2,381.8,418.3z M350.7,420.6c0,9.3-5.5,15.7-15.1,15.7c-9.6,0-15.1-6.4-15.1-15.7V307.5
				c0-9.3,5.5-15.7,15.1-15.7c9.6,0,15.1,6.4,15.1,15.7V420.6z M487.1,418.3V309.8c0-26.7-18.3-45.8-46.1-45.8
				c-27.8,0-46.1,19.1-46.1,45.8v108.5c0,27,18.3,45.8,46.1,45.8C468.9,464.1,487.1,445.2,487.1,418.3z M456.1,420.6
				c0,9.3-5.5,15.7-15.1,15.7c-9.6,0-15.1-6.4-15.1-15.7V307.5c0-9.3,5.5-15.7,15.1-15.7c9.6,0,15.1,6.4,15.1,15.7V420.6z
				 M593.1,415.7V313.6c0-28.7-16.2-46.1-44.1-46.1h-47v193.1h47C576.8,460.6,593.1,444.7,593.1,415.7z M562.3,312.9l0,102.2
				c0,11.9-4.6,18.3-15.4,18.3h-14.2V295H547C557.6,295,562.2,301,562.3,312.9L562.3,312.9z M630.6,460.6h-24.1v-34.2h24.1V460.6z"
				/>
		</g>
	</g>
</g>
</svg>
