<?xml version="1.0" encoding="UTF-8"?>
<svg width="253px" height="118px" viewBox="0 0 253 118" version="1.1" xmlns="http://www.w3.org/2000/svg" xmlns:xlink="http://www.w3.org/1999/xlink">
    <!-- Generator: Sketch 53 (72520) - https://sketchapp.com -->
    <title>W-BA_logo-02_STACKED</title>
    <desc>Created with Sketch.</desc>
    <g id="Case-Studies" stroke="none" stroke-width="1" fill="none" fill-rule="evenodd">
        <g id="Case-Study---Blue-Apron" transform="translate(-594.000000, -261.000000)" fill="#FFFFFE">
            <g id="Blue-Apron---Hero" transform="translate(-2.000000, 0.000000)">
                <g id="W-BA_logo-02_STACKED" transform="translate(595.500000, 261.500000)">
                    <path d="M59.393,2.094 C56.596,1.301 53.73,0.692 50.799,0.256 L49.664,19.37 L30.801,19.37 L29.668,0.256 C26.74,0.692 23.877,1.308 21.08,2.1 C19.908,14.336 23.828,44.582 0.682,59.031 L0.682,98.981 C0.682,98.981 14.734,114.094 40.24,114.094 C65.736,114.094 79.789,98.01 79.789,98.01 L79.789,59.031 C56.639,44.582 60.557,14.33 59.393,2.094" id="Fill-1"></path>
                    <path d="M114.223,29.856 L108.877,29.856 L108.877,42.488 C109.992,42.446 111.248,42.446 112.645,42.488 C114.041,42.532 115.342,42.423 116.543,42.165 C117.746,41.905 118.756,41.28 119.57,40.286 C120.387,39.292 120.795,37.911 120.795,36.14 C120.795,34.456 120.27,32.988 119.217,31.734 C118.164,30.482 116.5,29.856 114.223,29.856 Z M108.877,12.042 L108.877,22.471 L113.445,22.471 C115.506,22.471 116.955,21.964 117.791,20.949 C118.627,19.935 119.047,18.692 119.047,17.224 C119.047,15.756 118.617,14.535 117.76,13.563 C116.9,12.592 115.463,12.106 113.445,12.106 C112.459,12.106 111.59,12.106 110.84,12.106 C110.088,12.106 109.434,12.085 108.877,12.042 Z M99.029,4.98 C102.527,4.894 105.518,4.83 108.002,4.786 C110.484,4.743 112.482,4.721 113.994,4.721 C118.701,4.721 122.404,5.704 125.104,7.668 C127.803,9.634 129.152,12.582 129.152,16.511 C129.152,18.412 128.613,20.183 127.537,21.823 C126.461,23.465 125.084,24.652 123.404,25.386 C124.482,25.732 125.506,26.283 126.475,27.038 C127.445,27.794 128.273,28.68 128.963,29.694 C129.652,30.709 130.201,31.811 130.611,32.998 C131.02,34.186 131.225,35.406 131.225,36.658 C131.225,41.106 129.811,44.399 126.982,46.537 C124.152,48.675 120.148,49.744 114.965,49.744 C113.367,49.744 111.25,49.721 108.617,49.679 C105.982,49.635 102.787,49.571 99.029,49.484 L98.576,49.031 L98.576,5.434 L99.029,4.98 L99.029,4.98 Z" id="Fill-2"></path>
                    <path d="M146.125,41.905 L147.875,41.905 C148.393,43.342 148.652,44.78 148.652,46.217 C148.652,47.654 148.586,48.591 148.457,49.026 C145.865,49.461 143.555,49.679 141.525,49.679 C138.588,49.679 136.504,48.956 135.273,47.509 C134.043,46.063 133.428,43.784 133.428,40.674 L133.428,2.13 L133.816,1.676 L137.768,1.676 C139.797,1.676 141.223,2.13 142.043,3.035 C142.863,3.94 143.273,5.515 143.273,7.756 L143.273,38.866 C143.273,40.892 144.223,41.905 146.125,41.905" id="Fill-3"></path>
                    <path d="M150.076,38.407 L150.076,25.127 C150.076,22.32 149.557,20.161 148.521,18.649 C150.119,17.224 152.063,16.511 154.352,16.511 C156.641,16.511 158.195,17.029 159.016,18.066 C159.836,19.103 160.246,20.679 160.246,22.795 L160.246,36.528 C160.246,38.041 160.418,39.142 160.764,39.832 C161.109,40.523 162.018,40.869 163.486,40.869 C164.91,40.869 166.357,40.135 167.826,38.666 L167.826,17.029 C169.25,16.77 170.912,16.641 172.814,16.641 C174.713,16.641 176.42,16.77 177.932,17.029 L177.932,40.091 C177.932,42.423 178.535,44 179.746,44.82 C179.529,45.685 179.119,46.624 178.514,47.638 C177.91,48.653 177.283,49.397 176.637,49.873 C173.094,49.744 170.547,48.232 168.992,45.338 C165.58,48.406 162.361,49.938 159.34,49.938 C156.316,49.938 154.016,48.892 152.439,46.796 C150.863,44.702 150.076,41.905 150.076,38.407" id="Fill-4"></path>
                    <path d="M191.535,29.467 L200.021,29.467 L200.021,28.755 C200.021,27.157 199.666,25.839 198.961,24.803 C198.252,23.767 197.191,23.249 195.777,23.249 C194.406,23.249 193.389,23.734 192.725,24.706 C192.061,25.678 191.664,27.265 191.535,29.467 Z M208.445,36.463 L191.6,36.463 C191.686,38.387 192.18,39.883 193.084,40.951 C193.986,42.02 195.471,42.553 197.535,42.553 C198.568,42.553 199.764,42.407 201.119,42.115 C202.473,41.823 204.033,41.342 205.797,40.674 C207.215,42.143 208.098,44.13 208.443,46.634 C204.986,49.096 200.754,50.327 195.746,50.327 C193.025,50.327 190.746,49.895 188.91,49.031 C187.074,48.167 185.586,46.958 184.441,45.403 C183.297,43.849 182.486,42.014 182.012,39.897 C181.537,37.782 181.299,35.471 181.299,32.965 C181.299,30.547 181.592,28.313 182.174,26.261 C182.758,24.21 183.643,22.428 184.83,20.916 C186.018,19.405 187.529,18.218 189.365,17.354 C191.199,16.49 193.348,16.058 195.811,16.058 C197.883,16.058 199.75,16.404 201.414,17.094 C203.076,17.786 204.49,18.736 205.656,19.944 C206.822,21.154 207.719,22.601 208.346,24.285 C208.971,25.969 209.285,27.805 209.285,29.791 C209.285,32.426 209.004,34.65 208.445,36.463 L208.445,36.463 Z" id="Fill-5"></path>
                    <path d="M109.135,85.296 L111.727,85.23 L116.455,85.23 C116.672,85.23 117.049,85.242 117.59,85.264 C118.129,85.285 118.529,85.296 118.787,85.296 L117.686,81.279 C116.65,77.651 115.461,73.204 114.123,67.935 L113.734,67.935 C113.389,69.792 112.352,73.917 110.625,80.308 L109.135,85.296 Z M109.33,93.458 C108.164,93.458 107.299,93.437 106.738,93.394 L103.953,102.786 C102.916,103.046 101.469,103.175 99.613,103.175 C97.539,103.175 95.855,102.938 94.559,102.463 L94.236,101.944 L108.488,58.477 C110.172,58.217 112.137,58.088 114.383,58.088 C116.93,58.088 118.959,58.24 120.473,58.541 L134.465,102.074 C132.953,102.894 131.246,103.305 129.348,103.305 C127.102,103.305 125.525,102.916 124.617,102.139 C123.711,101.361 122.934,99.871 122.285,97.669 L121.055,93.394 C120.492,93.437 119.65,93.458 118.529,93.458 L109.33,93.458 L109.33,93.458 Z" id="Fill-6"></path>
                    <path d="M150.918,77.521 C149.105,77.521 147.527,78.387 146.189,80.113 L146.189,94.365 C147.83,95.359 149.234,95.854 150.4,95.854 C153.336,95.854 154.805,92.595 154.805,86.073 C154.805,80.372 153.51,77.521 150.918,77.521 Z M152.129,103.369 C150.148,103.369 148.17,102.916 146.189,102.009 L146.189,110.625 C146.189,112.87 145.779,114.447 144.959,115.354 C144.137,116.261 142.691,116.714 140.617,116.714 L136.73,116.714 L136.277,116.261 L136.277,70.396 L136.73,69.942 L139.387,69.942 C141.848,69.942 143.684,71.001 144.893,73.117 C147.348,70.655 150.34,69.425 153.869,69.425 C155.678,69.425 157.27,69.824 158.648,70.623 C160.025,71.423 161.199,72.556 162.166,74.023 C163.135,75.492 163.867,77.263 164.363,79.336 C164.857,81.409 165.105,83.741 165.105,86.332 C165.105,88.924 164.771,91.277 164.104,93.394 C163.438,95.51 162.523,97.303 161.361,98.771 C160.199,100.238 158.832,101.372 157.262,102.171 C155.691,102.97 153.979,103.369 152.129,103.369 L152.129,103.369 Z" id="Fill-7"></path>
                    <path d="M166.594,75.061 C166.811,74.197 167.221,73.236 167.824,72.178 C168.43,71.12 169.033,70.354 169.639,69.878 C173.611,70.181 176.377,72.146 177.932,75.772 C179.572,71.886 182.271,69.942 186.029,69.942 C187.15,69.942 188.576,70.115 190.305,70.461 C190.305,71.8 190.078,73.387 189.623,75.223 C189.17,77.059 188.555,78.623 187.777,79.919 C187.043,79.66 185.941,79.444 184.475,79.271 C182.314,79.271 180.543,80.372 179.162,82.575 L179.162,102.722 C177.736,102.98 176.063,103.11 174.141,103.11 C172.219,103.11 170.523,102.98 169.057,102.722 L169.057,81.798 C169.057,78.559 168.234,76.313 166.594,75.061" id="Fill-8"></path>
                    <path d="M204.977,77.004 C204.02,77.004 203.248,77.23 202.66,77.684 C202.074,78.138 201.605,78.753 201.258,79.53 C200.91,80.308 200.67,81.204 200.539,82.219 C200.41,83.233 200.344,84.324 200.344,85.49 C200.344,87.304 200.398,88.87 200.508,90.187 C200.615,91.505 200.834,92.605 201.16,93.49 C201.486,94.376 201.943,95.035 202.529,95.466 C203.117,95.898 203.889,96.114 204.846,96.114 C206.76,96.114 208.02,95.283 208.629,93.62 C209.238,91.958 209.543,89.594 209.543,86.526 C209.543,83.417 209.238,81.053 208.629,79.433 C208.02,77.813 206.803,77.004 204.977,77.004 Z M215.309,73.246 C218.418,76.355 219.973,80.805 219.973,86.591 C219.973,89.183 219.639,91.537 218.969,93.652 C218.299,95.769 217.328,97.571 216.055,99.062 C214.779,100.552 213.213,101.696 211.357,102.495 C209.5,103.294 207.361,103.693 204.943,103.693 C202.525,103.693 200.398,103.282 198.563,102.463 C196.727,101.643 195.172,100.486 193.898,98.997 C192.625,97.507 191.664,95.704 191.016,93.588 C190.369,91.472 190.045,89.14 190.045,86.591 C190.045,84 190.369,81.658 191.016,79.563 C191.664,77.469 192.613,75.666 193.867,74.153 C195.119,72.643 196.674,71.477 198.531,70.655 C200.387,69.835 202.525,69.425 204.943,69.425 C209.219,69.425 212.674,70.699 215.309,73.246 L215.309,73.246 Z" id="Fill-9"></path>
                    <path d="M251.066,81.344 L251.066,94.624 C251.066,97.475 251.586,99.612 252.621,101.037 C250.98,102.506 249.016,103.24 246.727,103.24 C244.48,103.24 242.947,102.722 242.127,101.686 C241.307,100.648 240.896,99.072 240.896,96.956 L240.896,83.158 C240.896,81.69 240.703,80.61 240.314,79.919 C239.926,79.229 239.168,78.883 238.047,78.883 C237.398,78.883 236.664,79.056 235.844,79.4 C235.023,79.747 234.182,80.308 233.316,81.085 L233.316,102.722 C232.582,102.852 231.783,102.948 230.92,103.014 C230.057,103.078 229.172,103.11 228.264,103.11 C227.357,103.11 226.473,103.078 225.609,103.014 C224.744,102.948 223.945,102.852 223.211,102.722 L223.211,70.396 L223.664,69.942 L227.486,69.942 C230.121,69.942 231.893,71.238 232.799,73.829 C235.822,71.152 238.824,69.813 241.803,69.813 C244.826,69.813 247.125,70.86 248.703,72.955 C250.279,75.05 251.066,77.846 251.066,81.344" id="Fill-10"></path>
                </g>
            </g>
        </g>
    </g>
</svg>