<?xml version="1.0" encoding="UTF-8"?>
<svg width="1440px" height="810px" viewBox="0 0 1440 810" version="1.1" xmlns="http://www.w3.org/2000/svg" xmlns:xlink="http://www.w3.org/1999/xlink">
    <!-- Generator: Sketch 59 (86127) - https://sketch.com -->
    <title>MOD 5 SLIDERFC_About</title>
    <desc>Created with Sketch.</desc>
    <g id="About" stroke="none" stroke-width="1" fill="none" fill-rule="evenodd">
        <g id="MOD-5-SLIDER" fill-rule="nonzero">
            <g>
                <rect id="Rectangle-Copy-3" fill="#1D1D1E" x="0" y="0" width="1440" height="810"></rect>
                <path d="M169.18,323.11 L169.18,294.98 L141.92,294.98 L141.92,323.69 C141.92,332.97 136.7,339.64 125.97,339.64 C115.24,339.64 110.02,332.97 110.02,323.98 L110.02,210.88 C110.02,201.89 115.24,195.22 125.97,195.22 C136.7,195.22 141.92,201.89 141.92,211.17 L141.92,239.59 L169.18,239.59 L169.18,211.75 C169.18,185.94 153.81,167.38 125.39,167.38 C97.26,167.38 78.7,187.1 78.7,213.49 L78.7,321.37 C78.7,347.76 97.26,367.48 125.39,367.48 C153.81,367.48 169.18,348.92 169.18,323.11 Z M275.706666,364 L275.706666,170.86 L244.966666,170.86 L244.966666,254.67 L212.486666,254.67 L212.486666,170.86 L181.746666,170.86 L181.746666,364 L212.486666,364 L212.486666,282.8 L244.966666,282.8 L244.966666,364 L275.706666,364 Z M381.073332,364 L348.883332,170.86 L314.953332,170.86 L282.763332,364 L310.893332,364 L316.693332,326.3 L344.823332,326.3 L349.753332,364 L381.073332,364 Z M341.343332,300.49 L320.463332,300.49 L331.773332,221.61 L341.343332,300.49 Z M482.669999,364 L482.669999,170.86 L455.119999,170.86 L455.119999,289.18 L445.259999,259.31 L415.099999,170.86 L387.839999,170.86 L387.839999,364 L415.679999,364 L415.679999,246.84 L426.409999,276.42 L458.889999,364 L482.669999,364 Z M589.486665,364 L589.486665,267.43 L544.536665,267.43 L544.536665,290.63 L559.616665,290.63 L559.616665,325.14 C559.616665,333.55 554.396665,340.51 543.956665,340.51 C533.806665,340.51 528.296665,333.55 528.296665,325.14 L528.296665,210.3 C528.296665,202.18 533.516665,195.22 543.666665,195.22 C554.106665,195.22 559.036665,201.89 559.036665,210.01 L559.036665,237.56 L588.036665,237.56 L588.036665,211.75 C588.036665,187.1 572.086665,167.38 543.666665,167.38 C515.246665,167.38 497.266665,187.68 497.266665,211.75 L497.266665,323.11 C497.266665,349.21 513.216665,367.48 538.736665,367.48 C551.786665,367.48 563.096665,361.97 568.316665,350.95 L572.956665,364 L589.486665,364 Z M680.353331,364 L680.353331,335.87 L633.953331,335.87 L633.953331,277 L666.143331,277 L666.143331,251.48 L633.953331,251.48 L633.953331,198.12 L680.353331,198.12 L680.353331,170.86 L603.213331,170.86 L603.213331,364 L680.353331,364 Z M111.47,624 L111.47,430.86 L80.73,430.86 L80.73,624 L111.47,624 Z M213.936666,579.92 C213.936666,555.56 200.016666,536.13 181.166666,516.7 L177.459866,512.742409 C162.028146,496.185459 154.776666,486.933571 154.776666,469.43 C154.776666,459.57 160.866666,453.77 169.856666,453.77 C179.716666,453.77 184.646666,461.02 184.646666,471.75 L184.646666,489.15 L212.486666,489.15 L212.486666,471.75 C212.486666,445.36 195.666666,427.38 169.856666,427.38 C139.986666,427.38 124.906666,448.55 124.906666,474.65 C124.906666,499.3 143.466666,521.92 159.416666,537.87 C175.656666,554.98 184.066666,567.45 184.066666,584.27 C184.066666,595 178.846666,601.67 167.826666,601.67 C157.096666,601.67 151.586666,594.71 151.586666,582.53 L151.586666,566 L123.456666,566 L123.456666,583.11 C123.456666,610.37 140.856666,627.48 168.696666,627.48 C193.926666,627.48 213.936666,610.66 213.936666,579.92 Z M349.559999,624 L349.559999,527.43 L304.609999,527.43 L304.609999,550.63 L319.689999,550.63 L319.689999,585.14 C319.689999,593.55 314.469999,600.51 304.029999,600.51 C293.879999,600.51 288.369999,593.55 288.369999,585.14 L288.369999,470.3 C288.369999,462.18 293.589999,455.22 303.739999,455.22 C314.179999,455.22 319.109999,461.89 319.109999,470.01 L319.109999,497.56 L348.109999,497.56 L348.109999,471.75 C348.109999,447.1 332.159999,427.38 303.739999,427.38 C275.319999,427.38 257.339999,447.68 257.339999,471.75 L257.339999,583.11 C257.339999,609.21 273.289999,627.48 298.809999,627.48 C311.859999,627.48 323.169999,621.97 328.389999,610.95 L333.029999,624 L349.559999,624 Z M453.766665,581.66 L453.766665,473.2 C453.766665,446.52 435.496665,427.38 407.656665,427.38 C379.816665,427.38 361.546665,446.52 361.546665,473.2 L361.546665,581.66 C361.546665,608.63 379.816665,627.48 407.656665,627.48 C435.496665,627.48 453.766665,608.63 453.766665,581.66 Z M422.736665,583.98 C422.736665,593.26 417.226665,599.64 407.656665,599.64 C398.086665,599.64 392.576665,593.26 392.576665,583.98 L392.576665,470.88 C392.576665,461.6 398.086665,455.22 407.656665,455.22 C417.226665,455.22 422.736665,461.6 422.736665,470.88 L422.736665,583.98 Z M559.133331,581.66 L559.133331,473.2 C559.133331,446.52 540.863331,427.38 513.023331,427.38 C485.183331,427.38 466.913331,446.52 466.913331,473.2 L466.913331,581.66 C466.913331,608.63 485.183331,627.48 513.023331,627.48 C540.863331,627.48 559.133331,608.63 559.133331,581.66 Z M528.103331,583.98 C528.103331,593.26 522.593331,599.64 513.023331,599.64 C503.453331,599.64 497.943331,593.26 497.943331,583.98 L497.943331,470.88 C497.943331,461.6 503.453331,455.22 513.023331,455.22 C522.593331,455.22 528.103331,461.6 528.103331,470.88 L528.103331,583.98 Z M665.079997,579.05 L665.079997,476.97 C665.079997,448.26 648.839997,430.86 620.999997,430.86 L574.019997,430.86 L574.019997,624 L620.999997,624 C648.839997,624 665.079997,608.05 665.079997,579.05 Z M634.338198,476.267132 L634.339997,578.47 C634.339997,590.36 629.699997,596.74 618.969997,596.74 L604.759997,596.74 L604.759997,458.41 L618.969997,458.41 C629.578066,458.41 634.233756,464.362377 634.338198,476.267132 L634.338198,476.267132 Z M702.586664,624 L678.516664,624 L678.516664,589.78 L702.586664,589.78 L702.586664,624 Z" id="CHANGEISGOOD." fill="#FFFFFF"></path>
            </g>
        </g>
    </g>
</svg>