<?xml version="1.0" encoding="UTF-8"?>
<svg width="132px" height="91px" viewBox="0 0 132 91" version="1.1" xmlns="http://www.w3.org/2000/svg" xmlns:xlink="http://www.w3.org/1999/xlink">
    <!-- Generator: Sketch 53 (72520) - https://sketchapp.com -->
    <title>Group 7</title>
    <desc>Created with Sketch.</desc>
    <g id="Case-Studies" stroke="none" stroke-width="1" fill="none" fill-rule="evenodd" opacity="0.5">
        <g id="Case-Study---Blue-Apron" transform="translate(-654.000000, -11320.000000)" fill="#1D1D1E">
            <g id="Blue-Apron---Press" transform="translate(0.000000, 11152.607750)">
                <g id="Group-7" transform="translate(654.000000, 168.000000)">
                    <path d="M87.5849913,21.6253786 L131.603774,21.6253786 L131.603774,0.000597468673 L87.5849913,0.000597468673 L87.5849913,21.6253786 Z M0,0 L0,21.6253786 L21.7825026,21.6253786 L21.7825026,66.2264151 L44.0193842,66.2264151 L44.0193842,21.6253786 L65.8018868,21.6253786 L65.8018868,0 L0,0 Z M65.8018868,21.6253786 L65.8018868,66.2264151 L131.603774,66.2264151 L131.603774,43.4843675 L87.5849913,43.4521042 L87.5849913,21.6253786 L65.8018868,21.6253786 Z" id="Fill-1"></path>
                    <g id="Group-6" transform="translate(0.000000, 72.169811)">
                        <path d="M46.5841869,17.2423868 L46.5841869,10.8247075 C46.5841869,8.59296226 46.1529363,7.92789623 44.7866095,7.92789623 C43.4202827,7.92789623 42.9656401,8.5935566 42.9656401,10.7545755 L42.9656401,17.2429811 L39.3476931,17.2429811 L39.3476931,1.89772642 L42.9656401,0.257943396 L42.9656401,5.93507547 C42.9656401,5.34133019 44.4153381,4.84267925 45.7330817,4.84267925 C48.9449694,4.84267925 50.202134,7.02687736 50.202134,10.5418019 L50.202134,17.2429811 L46.5841869,17.2423868 Z M31.6631544,17.8301887 C28.3792917,17.8301887 25.7683959,15.1705189 25.7683959,11.3471321 C25.7683959,7.52374528 28.3085162,4.84030189 31.8065048,4.84030189 C34.2032747,4.84030189 35.7369436,6.00401887 36.7919782,7.59566038 L34.6111335,9.77985849 C33.8685906,8.73500943 33.0774646,7.9980283 31.7357293,7.9980283 C30.1534772,7.9980283 29.1236339,9.30438679 29.1236339,11.3459434 C29.1236339,13.3423302 30.1534772,14.6718679 31.7357293,14.6718679 C33.0288814,14.6718679 33.8445989,14.1024906 34.7077,13.0808208 L36.8165697,15.0510566 C35.5935932,16.6664717 34.1546915,17.8301887 31.6631544,17.8301887 L31.6631544,17.8301887 Z M18.315377,7.83933962 C17.116992,7.83933962 16.3744492,8.27915094 16.2550905,10.0716792 L20.5681968,10.0716792 C20.4728298,8.27915094 19.8016623,7.83933962 18.315377,7.83933962 L18.315377,7.83933962 Z M23.7303017,11.8642075 L16.2065074,11.8642075 C16.325866,13.6573302 17.5962261,14.4793019 18.794611,14.4793019 C19.7056955,14.4793019 20.4716303,14.2790094 20.9514641,13.7310283 L23.2996509,15.7440566 C22.2931994,17.0254528 20.4716303,17.795717 18.794611,17.795717 C15.1760642,17.795717 12.875261,15.2715566 12.875261,11.3293019 C12.875261,7.50591509 15.2954229,4.83019811 18.4833189,4.83019811 C21.8385569,4.83019811 23.7794847,7.51483019 23.7794847,11.0767075 C23.7794847,11.5545566 23.7548932,11.8642075 23.7303017,11.8642075 L23.7303017,11.8642075 Z M9.04558733,3.79723585 L9.04558733,17.2423868 L5.42704051,17.2423868 L5.42704051,3.79723585 L0.000119958456,3.79723585 L0.000119958456,1.1084434 L13.5680211,1.1084434 L13.5680211,3.79723585 L9.04558733,3.79723585 Z" id="Fill-2"></path>
                        <path d="M126.635943,17.5691547 L126.635943,10.8245887 C126.635943,8.5928434 126.204693,7.92777736 124.838366,7.92777736 C123.474438,7.92777736 123.017996,8.59343774 123.017996,10.7544566 L123.017996,17.2428623 L119.400049,17.2428623 L119.400049,1.89760755 L123.017996,0.257824528 L123.017996,5.9349566 C123.017996,5.34121132 124.467694,4.84256038 125.785438,4.84256038 C128.997925,4.84256038 130.25389,7.02675849 130.25389,10.541683 L130.25389,17.2428623 L126.721114,17.2428623 L126.635943,17.5691547 Z M111.870257,17.8300698 C108.586394,17.8300698 105.976098,15.1704 105.976098,11.3470132 C105.976098,7.52422075 108.516219,4.84018302 112.014807,4.84018302 C114.412177,4.84018302 115.945246,6.0039 116.999081,7.59554151 L114.820035,9.78033396 C114.076293,8.73489057 113.286367,7.99790943 111.945231,7.99790943 C110.361779,7.99790943 109.330737,9.30426792 109.330737,11.3458245 C109.330737,13.3422113 110.361779,14.6717491 111.945231,14.6717491 C113.237184,14.6717491 114.052901,14.1023717 114.916602,13.0807019 L117.024872,15.0515321 C115.800096,16.6663528 114.362994,17.8300698 111.870257,17.8300698 L111.870257,17.8300698 Z M99.5001411,17.2422679 L99.5001411,10.8245887 C99.5001411,8.5928434 99.2950121,7.92777736 97.9280855,7.92777736 C96.5641579,7.92777736 96.3338376,8.59343774 96.3338376,10.7544566 L96.3338376,17.2428623 L92.7152908,17.2428623 L92.7152908,4.69456981 L96.3338376,4.69456981 L96.3338376,5.9349566 C96.3338376,5.34121132 97.5574139,4.84256038 98.8751575,4.84256038 C102.087045,4.84256038 103.118088,7.02675849 103.118088,10.541683 L103.118088,17.2428623 L99.5001411,17.2422679 Z M86.3838835,17.1305321 L86.3838835,16.7382679 C85.4793967,17.3314189 84.9347854,17.8300698 83.6164419,17.8300698 C80.4045543,17.8300698 79.1473896,15.6452774 79.1473896,12.1315415 L79.1473896,4.69397547 L81.8614497,4.69397547 L81.8614497,11.8456642 C81.8614497,14.0780038 82.744344,14.7424755 84.1112706,14.7424755 C85.4751982,14.7424755 86.3838835,14.0768151 86.3838835,11.9157962 L86.3838835,4.69338113 L90.0024303,4.69338113 L90.0024303,17.2416736 L86.2417327,17.2416736 L86.3838835,17.1305321 Z M75.733372,8.92448491 C75.2061546,8.44901321 74.6723394,8.1173717 73.9297966,8.1173717 C72.6366445,8.1173717 71.9114956,8.66535283 71.9114956,10.8239943 L71.9114956,17.2416736 L68.2935486,17.2416736 L68.2935486,4.69338113 L71.9114956,4.69338113 L71.9114956,5.93317358 C72.8159823,5.3394283 73.2118452,4.8413717 74.3868383,4.8413717 C75.4646651,4.8413717 76.2210031,5.26810755 76.6522538,5.71980566 L75.733372,8.92448491 Z M63.4154379,5.79053208 C62.8162455,4.65118302 61.8577774,3.98611698 60.3481002,3.98611698 C57.8319716,3.98611698 56.3948693,6.17090943 56.3948693,9.25731509 C56.3948693,12.2492208 57.8565631,14.5291075 60.3720919,14.5291075 C61.8835685,14.5291075 62.7700615,13.8884094 63.6559546,12.4156358 L66.4839752,14.0780038 C65.3341734,16.428617 63.320071,17.8294755 60.2773247,17.8294755 C55.8916436,17.8294755 52.9436645,14.5041453 52.9436645,9.25672075 C52.9436645,4.19829623 56.0104025,0.683966038 60.3960836,0.683966038 C63.5599879,0.683966038 65.476924,2.20369245 66.530759,4.36352264 L63.4154379,5.79053208 Z" id="Fill-4"></path>
                    </g>
                </g>
            </g>
        </g>
    </g>
</svg>