<?xml version="1.0" encoding="UTF-8"?>
<svg width="126px" height="72px" viewBox="0 0 126 72" version="1.1" xmlns="http://www.w3.org/2000/svg" xmlns:xlink="http://www.w3.org/1999/xlink">
    <!-- Generator: Sketch 53 (72520) - https://sketchapp.com -->
    <title>Shape</title>
    <desc>Created with Sketch.</desc>
    <g id="Case-Studies" stroke="none" stroke-width="1" fill="none" fill-rule="evenodd" opacity="0.346912202">
        <g id="Case-Study---Ladder" transform="translate(-162.000000, -11596.000000)" fill="#4A4A4A" fill-rule="nonzero">
            <g id="Ladder---Press" transform="translate(0.000000, 11417.789286)">
                <g id="wsj_logo_short" transform="translate(162.629651, 179.027344)">
                    <path d="M4.95222579,9.688283 C3.63556259,3.73382103 3.34078724,2.71193317 1.41492165,2.22064093 L0,1.82760714 L0,0.412685483 L17.8830376,0.412685483 L17.8830376,1.82760714 L16.3698575,2.12238248 C13.1469804,2.82984331 13.4417557,6.05272041 14.3457334,10.3957438 L22.3243194,49.9938985 L28.180523,18.4725883 L26.0581405,7.66415896 C25.2524212,3.83207948 24.9379942,2.61367472 22.9335218,2.10273079 L21.6168586,1.82760714 L21.6168586,0.412685483 L40.1090986,0.412685483 L40.1090986,1.82760714 L37.8884576,2.24029262 C34.5476704,2.849495 35.0586143,6.48505758 35.8643336,10.4153955 L43.5481443,50.0135502 L51.1336965,12.537778 C52.5486181,4.75570889 51.8411573,2.849495 48.8147971,2.24029262 L46.6924146,1.82760714 L46.6924146,0.412685483 L59.5249679,0.412685483 L59.5249679,1.82760714 L58.1100463,2.33855107 C56.0859223,3.0460119 55.5749783,4.97187748 54.1797084,11.6338003 L41.858099,70.4316557 L39.2247725,70.4316557 L29.7330064,24.5646121 L21.1452181,70.4316557 L17.8044308,70.4316557 L4.95222579,9.688283 Z M75.855522,70.412004 C69.9993185,70.412004 67.9751945,66.3637559 66.0493289,66.3637559 C64.9291826,66.3637559 63.6321711,66.6585313 62.6102832,69.9993185 L61.3918785,69.9993185 L61.3918785,46.9675383 L62.9050586,46.9675383 C64.1234633,59.9966085 68.957779,68.1717114 75.7376119,68.1717114 C80.2771522,68.1717114 83.4214226,64.0252049 83.4214226,56.5575628 C83.4214226,40.7969077 60.9005862,34.0367265 60.9005862,16.5663744 C60.9005862,7.17286672 65.6562951,-4.26325641e-14 74.2244318,-4.26325641e-14 C79.78586,-4.26325641e-14 80.8863546,3.63556259 83.205254,3.63556259 C84.5219172,3.63556259 85.4258949,2.63332641 85.9368388,0.412685483 L87.1552436,0.412685483 L87.1552436,23.4444658 L85.6420635,23.4444658 C84.4236587,11.8303172 81.3972985,2.24029262 74.1261734,2.24029262 C69.0756891,2.24029262 68.1717114,7.29077686 68.1717114,10.7298225 C68.1717114,25.7830168 90.6925477,30.9317595 90.6925477,51.9394157 C90.7121994,62.6299349 84.8559959,70.412004 75.855522,70.412004 Z M119.600183,53.9438881 C119.600183,64.7523174 114.137013,70.412004 105.765394,70.412004 C98.1798415,70.412004 93.7385596,64.2413735 93.8368181,57.4811922 C93.9350765,52.2341911 97.767156,49.6008647 100.911426,50.0135502 C103.132067,50.3083255 105.352708,51.9394157 105.057933,55.4767199 C104.763158,60.5272041 99.2999878,60.3306872 99.1034709,63.4553059 C98.906954,65.3811715 101.42237,68.2110148 104.664899,68.2110148 C110.324586,68.2110148 110.324586,61.038148 110.324586,55.5749783 L110.324586,6.56366434 C110.324586,3.73382103 109.420608,2.92810176 107.199967,2.41715783 L104.684551,1.80795545 L104.684551,0.412685483 L124.591712,0.412685483 L124.591712,1.82760714 L122.371071,2.43680952 C120.346947,2.94775345 119.639487,3.85173117 119.639487,6.68157448 L119.600183,53.9438881 Z" id="Shape"></path>
                </g>
            </g>
        </g>
    </g>
</svg>