<?xml version="1.0" encoding="utf-8"?>
<!-- Generator: Adobe Illustrator 22.1.0, SVG Export Plug-In . SVG Version: 6.00 Build 0)  -->
<svg version="1.1" id="Layer_1" xmlns="http://www.w3.org/2000/svg" xmlns:xlink="http://www.w3.org/1999/xlink" x="0px" y="0px"
	 viewBox="0 0 232.4 24.5" style="enable-background:new 0 0 232.4 24.5;" xml:space="preserve">
<style type="text/css">
	.st0{fill:#FFFFFF;}
</style>
<title>FC_Rebrand_Logo Black</title>
<desc>Created with Sketch.</desc>
<g>
	<path class="st0" d="M75.1,19.6c0-6.3,0-12.6,0-18.9c0-0.2,0-0.5,0-0.7c-0.1,0-0.2,0-0.2,0c-2.2,0.3-4.3,0.7-6.5,1
		c-0.1,0-0.3,0.2-0.3,0.3c0,0.4,0,0.9,0,1.3c1.9,0.2,2.2,0.5,2.2,2.3c0,4.9,0,9.8,0,14.7c0,2.2-0.5,2.7-2.9,2.7h-0.1
		c-1.5-0.1-2.1-0.8-2.1-2.3c0-2.4,0-4.7,0-7.1c0-0.5,0-1.1-0.1-1.6c-0.3-2.2-1.6-3.8-3.6-4.1c-2.5-0.4-4.6,0.4-6.3,2.4
		c-0.2,0.2-0.3,0.4-0.6,0.7c0-1.1,0-2,0-2.9c-1.9,0.3-3.7,0.6-5.4,0.9c-1.4,0.2-1.4,0.2-1.3,1.8c0.2,0,0.4,0,0.6,0
		c0.9,0.1,1.5,0.6,1.5,1.5c0,3,0,6,0,8.9c0,1-0.6,1.5-1.6,1.7c-0.2,0-0.4,0.1-0.6,0.1c0,0.5,0,1,0,1.5c2.9,0,5.8,0,8.7,0
		c0-0.2,0-0.3,0-0.4c0-0.3,0-0.7,0-1c-1.5-0.3-1.8-0.6-1.8-2.2c0-2.5,0-5,0-7.5c0-1.5,0.2-1.8,1.7-2.2c0.4-0.1,0.8-0.2,1.2-0.2
		c1.5-0.1,2.6,0.8,2.6,2.3c0.1,2.8,0,5.5,0,8.3c0,0.9-0.4,1.3-1.3,1.4c-0.1,0-0.3,0-0.4,0.1c0,0.5,0,1,0,1.5c6.3,0,12.5,0,18.7,0
		c0-0.5,0-1,0-1.5C75.2,21.9,75.1,21.7,75.1,19.6z"/>
	<path class="st0" d="M199.6,20.2c0-4,0-8,0-11.9c0-0.2,0-0.5,0-0.8c-4.3,0-8.5,0-12.8,0c0-1.3,0-2.6,0-3.8
		c-0.9-0.1-1.6-0.1-2.3,0.7c-1.1,1.5-2.7,2.4-4.4,3c-0.1,0-0.4,0.2-0.4,0.3c0,0.5,0,0.9,0,1.4c0.8,0,1.5,0,2.3,0c0,0.3,0,0.5,0,0.8
		c0,2.6,0,5.1,0,7.7c0,1,0,2.1,0,3.1c0.1,2.1,1.3,3.3,3.3,3.6c2.1,0.2,3.9-0.5,5.6-1.5c0.1-0.1,0.2-0.3,0.2-0.4c0-0.4,0-0.8,0-1.3
		c-0.7,0.1-1.4,0.2-2.1,0.2c-1.7,0-2.3-0.6-2.3-2.3c0-3,0-6,0-9c0-0.2,0-0.4,0-0.7c2.7,0,5.3,0,8,0c0,3.9,0,7.7,0,11.6
		c0,0.7-0.5,1.3-1.3,1.4c-0.3,0.1-0.6,0.1-0.9,0.1c0,0.5,0,1,0,1.5c3.1,0,6.1,0,9.2,0c0-0.5,0-1,0-1.5c-0.1,0-0.2,0-0.3-0.1
		C199.9,22.2,199.6,21.8,199.6,20.2z"/>
	<path class="st0" d="M18.4,1C12.3,1,6.2,1,0,1c0,0.6,0,1.1,0,1.7c0.4,0,0.8,0.1,1.2,0.1c1.1,0.1,1.7,0.8,1.7,1.9
		c0,5.1,0,10.3,0,15.4c0,1.1-0.6,1.7-1.7,1.8C0.9,22,0.4,22,0,22.1c0,0.6,0,1.1,0,1.6c3.9,0,7.7,0,11.6,0c0-0.6,0-1.1,0-1.6
		C11,22,10.5,22,9.9,22C8.6,21.8,8,21.2,8,19.9c0-1.6,0-3.1,0-4.7c0-0.5,0-1,0-1.5c1,0,2-0.1,3,0c1.1,0.1,1.7,0.8,1.9,1.9
		c0.1,0.4,0.2,0.9,0.2,1.4c0.6,0,1.1,0,1.7,0c0-2.9,0-5.7,0-8.5c-0.6,0-1.2,0-1.7,0c0,0.3-0.1,0.6-0.1,0.8c-0.2,1.1-0.6,2.1-1.8,2.3
		c-1,0.2-2.1,0.2-3.2,0.2c0-3.1,0-6,0-8.9c0.1,0,0.2,0,0.2,0c1.7,0,3.3,0,5,0c1.6,0,3,1.2,3.3,2.8c0,0.2,0.1,0.3,0.1,0.5
		c0.6-0.1,1.2-0.2,1.8-0.3C18.4,4.2,18.4,2.6,18.4,1z"/>
	<path class="st0" d="M101.1,3.1c1.4-0.7,2.9-0.3,3.6,1.1c0.4,0.7,0.5,1.4,0.7,2.2c0.3,1.1,0.9,1.9,2.1,2.1c1.1,0.2,2.1-0.1,2.7-1.1
		c0.7-1,0.7-2.1,0-3c-0.6-0.8-1.4-1.6-2.2-2.1c-4.4-2.7-10.3-1.4-13.2,3c-2.7,4.1-2.9,8.5-1.2,12.9c1.5,3.9,4.4,6.1,8.7,6.3
		c3.5,0.1,6.2-1.3,8.1-4.3c0.2-0.3,0.2-0.7,0.1-1c0-0.4-0.2-0.8-0.3-1.2c-0.7,0.4-1.2,0.8-1.9,1c-0.6,0.3-1.3,0.5-2,0.7
		c-3.5,0.9-6.4-0.4-7.8-3.5C97,12.5,97.2,8.8,99,5.1C99.5,4.2,100.2,3.5,101.1,3.1z"/>
	<path class="st0" d="M115.9,8.3c-2.8,1.7-3.9,4.3-3.9,7.4c0,0.1,0,0.2,0,0.4c0.1,3.3,1.3,6,4.4,7.4c3.2,1.5,6.5,1.3,9.3-0.9
		c3.2-2.5,3.9-7.9,1.7-11.6C124.9,6.7,119.2,6.3,115.9,8.3z M123.1,20.8c-0.1,0.4-0.3,0.8-0.6,1.1c-0.7,1-2,1.1-2.9,0.3
		c-0.4-0.4-0.9-0.9-1.1-1.4c-1.5-3.1-1.9-6.4-1.2-9.8c0.1-0.6,0.4-1.1,0.7-1.6c0.7-1,1.9-1.1,2.9-0.3c0.9,0.8,1.5,1.8,1.7,3
		c0.4,1.8,0.7,3.6,1,5.3C123.5,18.7,123.4,19.7,123.1,20.8z"/>
	<path class="st0" d="M46.2,21.9c-1.1,0.1-1.6-0.4-1.7-1.5c0-0.2,0-0.3,0-0.5c0-2.3,0-4.7,0-7c0-2.9-1.7-5.1-4.5-5.6
		c-1.8-0.3-3.5-0.2-5.1,0.6c-0.7,0.3-1.3,0.8-1.9,1.3c-0.8,0.8-0.9,1.7-0.5,2.6s1.3,1.3,2.3,1.2c0.9-0.1,1.6-0.8,1.8-1.8
		c0.2-0.6,0.4-1.2,0.7-1.7c0.3-0.6,0.9-0.9,1.6-0.8c0.7,0.1,1.1,0.6,1.3,1.2c0.5,1.4,0.1,3-1.2,3.7c-0.8,0.5-1.7,0.8-2.6,1.1
		c-1.2,0.5-2.4,0.8-3.6,1.4c-1.5,0.7-2.3,2-2.5,3.7c-0.2,2.3,1.3,4.2,3.6,4.5s4-0.7,5.5-2.4c0.1-0.2,0.3-0.3,0.4-0.5
		c0.5,2,1.5,2.9,3.3,3c0.8,0,1.7-0.2,2.5-0.5c1.2-0.5,1.2-0.5,1-1.9C46.6,21.9,46.4,21.9,46.2,21.9z M39.7,19.9
		c0,0.2-0.1,0.4-0.3,0.5c-0.7,0.7-2,0.9-2.9,0.5s-1.1-1.2-1.2-2.1c-0.1-1.3,0.5-2.2,1.7-2.7c0.8-0.3,1.7-0.7,2.6-1.1
		C39.7,16.7,39.7,18.3,39.7,19.9z"/>
	<path class="st0" d="M163.2,12.9c-0.4-2-1.2-3.7-3-4.8c-2.9-1.8-6.9-1-9.1,1.9c-2.3,3.2-2.5,6.7-0.9,10.2c1.5,3.5,5.1,4.9,8.7,3.8
		c2.3-0.7,4.2-2.9,4.4-5.6c-0.2,0-0.3,0-0.5,0c-0.6-0.1-1,0.1-1.4,0.6s-0.9,0.9-1.5,1.1c-3.6,1.3-6.4-1.6-6.2-5c3.2,0,6.5,0,9.8,0
		C163.3,14.3,163.3,13.6,163.2,12.9z M153.6,13.3c0.2-1.4,0.4-2.7,1.3-3.8c1-1.3,2.5-1.1,3.2,0.4c0.5,1.1,0.6,2.2,0.6,3.4
		C157,13.3,155.3,13.3,153.6,13.3z"/>
	<path class="st0" d="M230.4,19c-0.3,0.5-0.9,0.9-1.4,1.1c-3.7,1.4-6.5-1.6-6.3-5c3.2,0,6.4,0,9.7,0c0-0.5,0-0.9-0.1-1.3
		c-0.2-1.9-0.8-3.7-2.2-5c-2.8-2.5-7.3-2.1-9.8,1c-2.5,3.2-2.7,6.7-1.2,10.3c1.5,3.5,5,5.1,8.7,3.9c2.4-0.7,4.5-3.3,4.5-5.6
		c-0.2,0-0.3,0-0.5,0C231.2,18.3,230.8,18.5,230.4,19z M224.1,9.2c0.9-0.9,2.2-0.7,2.8,0.4s0.6,2.4,0.7,3.6c-1.7,0-3.3,0-5,0
		C222.8,11.8,223,10.3,224.1,9.2z"/>
	<path class="st0" d="M136.2,19.8c0-6.3,0-12.7,0-19c0-0.2,0-0.5,0-0.7C136.1,0.1,136,0,136,0c-2.2,0.3-4.3,0.7-6.5,1
		c-0.1,0-0.3,0.2-0.3,0.3c0,0.4,0,0.9,0,1.3c0.3,0,0.5,0,0.7,0.1c0.9,0.1,1.4,0.7,1.4,1.5c0,5.5,0,10.9,0,16.4
		c0,0.9-0.5,1.4-1.3,1.6c-0.3,0-0.5,0.1-0.8,0.1c0,0.5,0,1,0,1.5c3.1,0,6.1,0,9.2,0c0-0.1,0-0.3,0-0.4c0-0.4,0-0.7,0-1.1
		C136.4,22.1,136.2,21.9,136.2,19.8z"/>
	<path class="st0" d="M146.5,20.1c0-6.4,0-12.9,0-19.3c0-0.2,0-0.5,0-0.7c-0.3,0-0.5,0.1-0.8,0.1c-1.7,0.3-3.3,0.5-5,0.8
		c-1.4,0.2-1.5,0.3-1.2,1.8c0.2,0,0.3,0,0.5,0c1,0.1,1.5,0.5,1.6,1.6c0,0.2,0,0.5,0,0.7c0,5,0,10,0,14.9c0,0.3,0,0.6-0.1,0.9
		c-0.1,0.8-0.5,1.2-1.3,1.4c-0.3,0.1-0.6,0.1-0.9,0.1c0,0.5,0,1,0,1.5c3.1,0,6.2,0,9.2,0c0-0.5,0-1,0-1.5c-0.1,0-0.2-0.1-0.3-0.1
		C146.8,22.1,146.5,21.8,146.5,20.1z"/>
	<path class="st0" d="M218.9,7.5c-2.3,0-4.5,0-6.8,0c0,0.5,0,1,0,1.5c0.1,0,0.2,0,0.3,0c1.7,0.1,2.1,0.7,1.5,2.4
		c-0.8,2-1.5,4.1-2.3,6.1c-0.1,0.2-0.1,0.3-0.3,0.6c-0.9-2.5-1.7-4.9-2.5-7.2c-0.4-1.3-0.2-1.6,1.1-1.8c0,0,0.1,0,0.1-0.1
		c0-0.5,0-1,0-1.4c-3.1,0-6.1,0-9.1,0c0,0.5,0,1,0,1.5c1.4,0.1,2.2,0.9,2.7,2.1c1,2.4,2,4.8,3,7.2c0.8,1.9,1.5,3.7,2.3,5.6
		c0.5,0,0.9,0,1.3,0c0.5,0,0.7-0.1,0.9-0.6c1.7-4,3.4-8,5.1-12c0.5-1.2,1.1-2.3,2.7-2.4C218.9,8.5,218.9,8,218.9,7.5z"/>
	<path class="st0" d="M178.9,18.4c-0.6,0-1,0.1-1.4,0.6c-0.5,0.5-1.2,1-1.8,1.2c-2.5,0.9-4.9-0.5-5.7-3.2c-0.4-1.5-0.5-3.1-0.2-4.7
		c0.2-1,0.5-2,1.2-2.9c1.1-1.3,2.5-1.1,3.2,0.4c0.2,0.5,0.3,1.1,0.5,1.7c0.3,0.9,1,1.5,2,1.4c0.9,0,1.6-0.7,1.8-1.6
		c0.2-1-0.3-1.6-0.9-2.3c-2.6-2.8-7.3-2.6-10,0.4c-2.1,2.3-2.6,5.1-2.1,8.1c0.7,4.5,3.9,7.1,8.3,6.6c3.5-0.4,5.4-3.2,5.7-5.9
		C179.2,18.4,179,18.4,178.9,18.4z"/>
	<path class="st0" d="M29.9,7.1c-1.4-0.3-2.6,0-3.5,1.1c-0.7,0.9-1.1,2-1.7,3c-0.1,0.2-0.2,0.4-0.3,0.6h-0.1c0-1.5,0-3,0-4.5
		C22,7.7,19.8,8,17.6,8.4c0,0.5,0,1,0,1.5c1.8,0.2,2.1,0.5,2.1,2.3c0,2.5,0,4.9,0,7.4c0,2.1-0.1,2.2-2.2,2.6c0,0.5,0,1,0,1.5
		c3.2,0,6.4,0,9.6,0c0-0.5,0-1,0-1.5c-0.2,0-0.4,0-0.6,0c-1.4,0-2-0.6-2-2c0-2.1,0.1-4.2,0-6.3c0-0.9,0.4-1.4,1.1-1.8
		c0.3-0.2,0.7-0.3,1-0.4c1.2-0.1,2.4-0.1,3.6-0.1c0-1.3,0-2.7,0-4.2C30.3,7.3,30.1,7.1,29.9,7.1z"/>
	<path class="st0" d="M83.4,17.8c-1.1-1.5-2.2-2.9-3.2-4.2c0.8-0.9,1.5-1.7,2.2-2.5c1.1-1.1,2.2-2.2,3.9-2.2c0-0.6,0-1,0-1.5
		c-2.8,0-5.6,0-8.3,0c0,0.5,0,1,0,1.5c0.2,0,0.4,0,0.6,0c0.6,0.1,1.3,0,1.6,0.7c0.3,0.7-0.3,1.2-0.7,1.6c-1.3,1.3-2.5,2.6-3.9,3.9
		c1.7,2.4,3.5,4.9,5.3,7.3c0.5,0.7,1.2,1.2,2.1,1.2c0.8,0.1,1.7,0.1,2.6,0.1c0.5,0,1.1,0,1.6,0c0.1-0.9,0-1.5-0.6-2.2
		C85.4,20.5,84.4,19.1,83.4,17.8z"/>
	<path class="st0" d="M197.6,5.7c1.5,0,2.8-1.2,2.8-2.8s-1.3-2.8-2.8-2.8c-1.6,0-2.8,1.3-2.8,2.8S196.1,5.7,197.6,5.7z"/>
</g>
</svg>
