<?xml version="1.0" encoding="UTF-8"?>
<svg width="33px" height="32px" viewBox="0 0 33 32" version="1.1" xmlns="http://www.w3.org/2000/svg" xmlns:xlink="http://www.w3.org/1999/xlink">
    <!-- Generator: Sketch 53.2 (72643) - https://sketchapp.com -->
    <title>Monogram/Dark</title>
    <desc>Created with Sketch.</desc>
    <defs>
        <polygon id="path-1" points="0 0 31.9003908 0 31.9003908 31.3149221 0 31.3149221"></polygon>
    </defs>
    <g id="Homepage" stroke="none" stroke-width="1" fill="none" fill-rule="evenodd">
        <g id="m_Nav-Expanded" transform="translate(-171.000000, -586.000000)">
            <g id="Monogram/Light" transform="translate(171.500000, 585.875000)">
                <g id="Group-3" transform="translate(0.000000, 0.217262)">
                    <mask id="mask-2" fill="white">
                        <use xlink:href="#path-1"></use>
                    </mask>
                    <g id="Clip-2"></g>
                    <path d="M31.4853351,1.59179233 C30.9253875,1.68563287 28.0252433,2.18635931 25.8362334,2.18635931 C21.5695318,2.18635931 17.4242203,-5.21916238e-05 12.6746859,-5.21916238e-05 C6.72646295,-5.21916238e-05 4.15324328,2.84637459 4.15324328,5.05867314 C4.15324328,6.7225421 6.06474492,8.73379852 9.40334164,8.73379852 C13.2013744,8.73379852 15.4190269,7.46000975 17.3978859,5.4122192 L13.8876433,5.4122192 L13.8813482,5.4122192 C12.6439449,7.16136928 11.700522,7.5331824 10.2854925,7.5331824 C6.24237115,7.5331824 6.93451541,1.21288115 13.6181089,1.21288115 C16.1846138,1.21288115 20.5895974,2.9060818 24.1125351,3.28791572 C24.2827121,3.30628718 24.4462793,3.32142275 24.6053351,3.3341575 C22.8583449,4.42412737 21.4025023,6.28455 20.0092957,9.49349979 L19.4426334,10.8021526 C19.3777941,10.9532995 19.3128498,11.1066385 19.2482203,11.2624827 C19.2390925,11.2672843 19.2331121,11.2706246 19.2239843,11.2755306 C17.6555646,10.9645729 15.9217941,11.0010027 14.36544,11.5923338 C13.3422793,10.7999605 11.7557089,10.1539326 9.86288262,10.1539326 C4.15324328,10.1539326 -4.19672131e-05,15.89522 -4.19672131e-05,21.0148007 C-4.19672131e-05,27.1279013 5.10285639,31.3149221 11.045099,31.3149221 C18.2615711,31.3149221 21.5695318,25.5248877 24.2834466,19.2107451 L22.9847711,19.2107451 C21.8881679,21.6242945 20.4854138,24.0013098 18.6597351,25.768727 C16.8403515,27.5361441 14.591958,28.7003305 11.7985154,28.7003305 C7.21034492,28.7003305 3.5162859,25.2324059 3.5162859,20.0701324 C3.5162859,15.6574349 6.68334164,11.500894 10.4997351,11.500894 C11.3675121,11.500894 11.9561023,11.7966118 12.3921416,12.1262541 C12.5859252,12.2729125 12.6217023,12.5468142 12.4566662,12.7249964 C10.9975711,14.2987826 11.21024,16.5412479 12.9048761,16.5412479 C14.1791056,16.5412479 15.4678138,14.9758123 15.3455843,13.1282289 C15.7681941,12.6588174 16.7422531,12.1774019 17.7223974,12.1774019 C18.2119449,12.1774019 19.036181,12.3199894 19.6322203,12.4475457 C19.706817,12.463412 19.7138466,12.5667514 19.6420826,12.592534 C19.3429613,12.7000488 19.1202203,12.7990041 18.8199449,12.9449319 C18.553558,13.0743671 18.343617,13.2961815 18.2296761,13.5685174 C17.7841941,14.6329134 17.2807974,15.8981427 16.9137941,16.7301816 C14.9289548,21.2402686 13.5751974,24.2512033 11.6577154,24.2512033 C9.63006951,24.2512033 9.61768918,21.1793087 10.4876695,19.2107451 L6.92224,19.2107451 C6.29136787,22.5140573 8.4721941,25.4456608 11.731263,25.4456608 C16.0807449,25.4456608 18.6292039,21.0270136 20.1729679,17.4493822 C20.5404957,16.5961535 21.3306334,14.7432465 22.0536236,13.0367891 C22.6477744,13.1708172 23.2726662,13.2927369 23.9648105,13.378018 C25.5324957,13.5497284 24.5677744,15.5354109 24.5090203,15.6482492 C24.508181,15.649815 24.5096498,15.6513807 24.5114334,15.6513807 L25.8202859,15.6513807 L28.2041285,10.0929728 L26.899158,10.0929728 C26.899158,10.0929728 26.2192892,12.2383617 24.1731777,12.2383617 C23.6704105,12.2383617 23.1120367,12.1527674 22.5048761,12.0245848 C22.5008892,12.0170692 22.4991056,12.0134158 22.4951187,12.0059002 C22.6121023,11.7322073 22.7240498,11.4698922 22.828758,11.2243828 L23.6958007,9.19308481 C24.9398138,6.27588619 26.649663,3.39866635 28.0232498,3.24031696 C28.0322728,3.2394819 28.0416105,3.23864683 28.0506334,3.23791615 C29.8481941,3.10357491 28.9186203,5.40334662 28.9186203,5.40334662 L30.227263,5.40334662 L31.9003908,1.51047778 L31.4853351,1.59179233 Z" id="Fill-1" fill="#FFFFFF" mask="url(#mask-2)"></path>
                </g>
            </g>
        </g>
    </g>
</svg>